<svg aria-roledescription="er" role="graphics-document document" viewBox="-17.11956024169922 0 368.7235107421875 276" style="max-width: 100%;" xmlns="http://www.w3.org/2000/svg" width="100%" id="graph-div" height="100%" xmlns:xlink="http://www.w3.org/1999/xlink"><style>@import url("https://cdnjs.cloudflare.com/ajax/libs/font-awesome/6.5.1/css/all.min.css");'</style><style>#graph-div{font-family:"trebuchet ms",verdana,arial,sans-serif;font-size:16px;fill:#333;}#graph-div .error-icon{fill:#552222;}#graph-div .error-text{fill:#552222;stroke:#552222;}#graph-div .edge-thickness-normal{stroke-width:2px;}#graph-div .edge-thickness-thick{stroke-width:3.5px;}#graph-div .edge-pattern-solid{stroke-dasharray:0;}#graph-div .edge-pattern-dashed{stroke-dasharray:3;}#graph-div .edge-pattern-dotted{stroke-dasharray:2;}#graph-div .marker{fill:#333333;stroke:#333333;}#graph-div .marker.cross{stroke:#333333;}#graph-div svg{font-family:"trebuchet ms",verdana,arial,sans-serif;font-size:16px;}#graph-div .entityBox{fill:#ECECFF;stroke:#9370DB;}#graph-div .attributeBoxOdd{fill:#ffffff;stroke:#9370DB;}#graph-div .attributeBoxEven{fill:#f2f2f2;stroke:#9370DB;}#graph-div .relationshipLabelBox{fill:hsl(80, 100%, 96.2745098039%);opacity:0.7;background-color:hsl(80, 100%, 96.2745098039%);}#graph-div .relationshipLabelBox rect{opacity:0.5;}#graph-div .relationshipLine{stroke:#333333;}#graph-div .entityTitleText{text-anchor:middle;font-size:18px;fill:#333;}#graph-div #MD_PARENT_START{fill:#f5f5f5!important;stroke:#333333!important;stroke-width:1;}#graph-div #MD_PARENT_END{fill:#f5f5f5!important;stroke:#333333!important;stroke-width:1;}#graph-div :root{--mermaid-font-family:"trebuchet ms",verdana,arial,sans-serif;}</style><g></g><defs><marker orient="auto" markerHeight="240" markerWidth="190" refY="7" refX="0" id="MD_PARENT_START"><path d="M 18,7 L9,13 L1,7 L9,1 Z"></path></marker></defs><defs><marker orient="auto" markerHeight="28" markerWidth="20" refY="7" refX="19" id="MD_PARENT_END"><path d="M 18,7 L9,13 L1,7 L9,1 Z"></path></marker></defs><defs><marker orient="auto" markerHeight="18" markerWidth="18" refY="9" refX="0" id="ONLY_ONE_START"><path d="M9,0 L9,18 M15,0 L15,18" fill="none" stroke="gray"></path></marker></defs><defs><marker orient="auto" markerHeight="18" markerWidth="18" refY="9" refX="18" id="ONLY_ONE_END"><path d="M3,0 L3,18 M9,0 L9,18" fill="none" stroke="gray"></path></marker></defs><defs><marker orient="auto" markerHeight="18" markerWidth="30" refY="9" refX="0" id="ZERO_OR_ONE_START"><circle r="6" cy="9" cx="21" fill="white" stroke="gray"></circle><path d="M9,0 L9,18" fill="none" stroke="gray"></path></marker></defs><defs><marker orient="auto" markerHeight="18" markerWidth="30" refY="9" refX="30" id="ZERO_OR_ONE_END"><circle r="6" cy="9" cx="9" fill="white" stroke="gray"></circle><path d="M21,0 L21,18" fill="none" stroke="gray"></path></marker></defs><defs><marker orient="auto" markerHeight="36" markerWidth="45" refY="18" refX="18" id="ONE_OR_MORE_START"><path d="M0,18 Q 18,0 36,18 Q 18,36 0,18 M42,9 L42,27" fill="none" stroke="gray"></path></marker></defs><defs><marker orient="auto" markerHeight="36" markerWidth="45" refY="18" refX="27" id="ONE_OR_MORE_END"><path d="M3,9 L3,27 M9,18 Q27,0 45,18 Q27,36 9,18" fill="none" stroke="gray"></path></marker></defs><defs><marker orient="auto" markerHeight="36" markerWidth="57" refY="18" refX="18" id="ZERO_OR_MORE_START"><circle r="6" cy="18" cx="48" fill="white" stroke="gray"></circle><path d="M0,18 Q18,0 36,18 Q18,36 0,18" fill="none" stroke="gray"></path></marker></defs><defs><marker orient="auto" markerHeight="36" markerWidth="57" refY="18" refX="39" id="ZERO_OR_MORE_END"><circle r="6" cy="18" cx="9" fill="white" stroke="gray"></circle><path d="M21,18 Q39,0 57,18 Q39,36 21,18" fill="none" stroke="gray"></path></marker></defs><path style="stroke: gray; fill: none;" marker-start="url(#ONLY_ONE_START)" marker-end="url(#ZERO_OR_MORE_END)" d="M70,66L70,74.333C70,82.667,70,99.333,78.772,116C87.544,132.667,105.088,149.333,113.86,157.667L122.632,166" class="er relationshipLine"></path><path style="stroke: gray; fill: none;" marker-start="url(#ONLY_ONE_START)" marker-end="url(#ZERO_OR_MORE_END)" d="M270,66L270,74.333C270,82.667,270,99.333,261.228,116C252.456,132.667,234.912,149.333,226.14,157.667L217.368,166" class="er relationshipLine"></path><g transform="translate(20,20 )" id="entity-Book-38ec81cf-f0e5-5afc-a4a3-fa6f3d3204f1"><rect height="46" width="100" y="0" x="0" class="er entityBox"></rect><text style="dominant-baseline: middle; text-anchor: middle; font-size: 12px;" transform="translate(50,12)" y="0" x="0" id="text-entity-Book-38ec81cf-f0e5-5afc-a4a3-fa6f3d3204f1" class="er entityLabel">Book</text><rect height="22" width="53.0859375" y="24" x="0" class="er attributeBoxOdd"></rect><text style="dominant-baseline: middle; font-size: 10.2px;" transform="translate(5,35)" y="0" x="0" id="text-entity-Book-38ec81cf-f0e5-5afc-a4a3-fa6f3d3204f1-attr-1-type" class="er entityLabel">string</text><rect height="22" width="46.9140625" y="24" x="53.0859375" class="er attributeBoxOdd"></rect><text style="dominant-baseline: middle; font-size: 10.2px;" transform="translate(58.0859375,35)" y="0" x="0" id="text-entity-Book-38ec81cf-f0e5-5afc-a4a3-fa6f3d3204f1-attr-1-name" class="er entityLabel">title</text></g><g transform="translate(120,166 )" id="entity-Booktags-bba2bc08-cba6-55c0-a7df-3b96b218cf07"><rect height="90" width="100" y="0" x="0" class="er entityBox"></rect><text style="dominant-baseline: middle; text-anchor: middle; font-size: 12px;" transform="translate(50,12)" y="0" x="0" id="text-entity-Booktags-bba2bc08-cba6-55c0-a7df-3b96b218cf07" class="er entityLabel">Book_tags</text><rect height="22" width="25.927083333333332" y="24" x="0" class="er attributeBoxOdd"></rect><text style="dominant-baseline: middle; font-size: 10.2px;" transform="translate(5,35)" y="0" x="0" id="text-entity-Booktags-bba2bc08-cba6-55c0-a7df-3b96b218cf07-attr-1-type" class="er entityLabel">int</text><rect height="22" width="49.114583333333336" y="24" x="25.927083333333332" class="er attributeBoxOdd"></rect><text style="dominant-baseline: middle; font-size: 10.2px;" transform="translate(30.927083333333332,35)" y="0" x="0" id="text-entity-Booktags-bba2bc08-cba6-55c0-a7df-3b96b218cf07-attr-1-name" class="er entityLabel">id</text><rect height="22" width="24.958333333333332" y="24" x="75.04166666666667" class="er attributeBoxOdd"></rect><text style="dominant-baseline: middle; font-size: 10.2px;" transform="translate(80.04166666666667,35)" y="0" x="0" id="text-entity-Booktags-bba2bc08-cba6-55c0-a7df-3b96b218cf07-attr-1-key" class="er entityLabel">PK</text><rect height="22" width="25.927083333333332" y="46" x="0" class="er attributeBoxEven"></rect><text style="dominant-baseline: middle; font-size: 10.2px;" transform="translate(5,57)" y="0" x="0" id="text-entity-Booktags-bba2bc08-cba6-55c0-a7df-3b96b218cf07-attr-2-type" class="er entityLabel">int</text><rect height="22" width="49.114583333333336" y="46" x="25.927083333333332" class="er attributeBoxEven"></rect><text style="dominant-baseline: middle; font-size: 10.2px;" transform="translate(30.927083333333332,57)" y="0" x="0" id="text-entity-Booktags-bba2bc08-cba6-55c0-a7df-3b96b218cf07-attr-2-name" class="er entityLabel">book_id</text><rect height="22" width="24.958333333333332" y="46" x="75.04166666666667" class="er attributeBoxEven"></rect><text style="dominant-baseline: middle; font-size: 10.2px;" transform="translate(80.04166666666667,57)" y="0" x="0" id="text-entity-Booktags-bba2bc08-cba6-55c0-a7df-3b96b218cf07-attr-2-key" class="er entityLabel">FK</text><rect height="22" width="25.927083333333332" y="68" x="0" class="er attributeBoxOdd"></rect><text style="dominant-baseline: middle; font-size: 10.2px;" transform="translate(5,79)" y="0" x="0" id="text-entity-Booktags-bba2bc08-cba6-55c0-a7df-3b96b218cf07-attr-3-type" class="er entityLabel">int</text><rect height="22" width="49.114583333333336" y="68" x="25.927083333333332" class="er attributeBoxOdd"></rect><text style="dominant-baseline: middle; font-size: 10.2px;" transform="translate(30.927083333333332,79)" y="0" x="0" id="text-entity-Booktags-bba2bc08-cba6-55c0-a7df-3b96b218cf07-attr-3-name" class="er entityLabel">tag_id</text><rect height="22" width="24.958333333333332" y="68" x="75.04166666666667" class="er attributeBoxOdd"></rect><text style="dominant-baseline: middle; font-size: 10.2px;" transform="translate(80.04166666666667,79)" y="0" x="0" id="text-entity-Booktags-bba2bc08-cba6-55c0-a7df-3b96b218cf07-attr-3-key" class="er entityLabel">FK</text></g><g transform="translate(220,20 )" id="entity-Tag-79f01a75-328e-5fee-acfd-3ecc1e7e19fa"><rect height="46" width="100" y="0" x="0" class="er entityBox"></rect><text style="dominant-baseline: middle; text-anchor: middle; font-size: 12px;" transform="translate(50,12)" y="0" x="0" id="text-entity-Tag-79f01a75-328e-5fee-acfd-3ecc1e7e19fa" class="er entityLabel">Tag</text><rect height="22" width="50.38671875" y="24" x="0" class="er attributeBoxOdd"></rect><text style="dominant-baseline: middle; font-size: 10.2px;" transform="translate(5,35)" y="0" x="0" id="text-entity-Tag-79f01a75-328e-5fee-acfd-3ecc1e7e19fa-attr-1-type" class="er entityLabel">string</text><rect height="22" width="49.61328125" y="24" x="50.38671875" class="er attributeBoxOdd"></rect><text style="dominant-baseline: middle; font-size: 10.2px;" transform="translate(55.38671875,35)" y="0" x="0" id="text-entity-Tag-79f01a75-328e-5fee-acfd-3ecc1e7e19fa-attr-1-name" class="er entityLabel">name</text></g><rect height="14" width="159.640625" y="115.63728332519531" x="2.8804397583007812" class="er relationshipLabelBox"></rect><text style="text-anchor: middle; dominant-baseline: middle; font-size: 12px;" y="122.63728332519531" x="82.70075225830078" id="rel156" class="er relationshipLabel">Связана с множеством тегов</text><rect height="14" width="148.609375" y="115.63726806640625" x="182.99456787109375" class="er relationshipLabelBox"></rect><text style="text-anchor: middle; dominant-baseline: middle; font-size: 12px;" y="122.63726806640625" x="257.29925537109375" id="rel157" class="er relationshipLabel">Связан с множеством книг</text></svg>